<!-- <svg xmlns="http://www.w3.org/2000/svg" fill="none" class="icon icon-account" viewBox="0 0 18 19"><path fill="currentColor" fill-rule="evenodd" d="M6 4.5a3 3 0 1 1 6 0 3 3 0 0 1-6 0m3-4a4 4 0 1 0 0 8 4 4 0 0 0 0-8m5.58 12.15c1.12.82 1.83 2.24 1.91 4.85H1.51c.08-2.6.79-4.03 1.9-4.85C4.66 11.75 6.5 11.5 9 11.5s4.35.26 5.58 1.15M9 10.5c-2.5 0-4.65.24-6.17 1.35C1.27 12.98.5 14.93.5 18v.5h17V18c0-3.07-.77-5.02-2.33-6.15-1.52-1.1-3.67-1.35-6.17-1.35" clip-rule="evenodd"/></svg> -->
<svg width="18" height="17" viewBox="0 0 18 17" fill="none" xmlns="http://www.w3.org/2000/svg">
<path d="M17.3101 15.4062C16.239 13.5262 14.5665 12.0614 12.5617 11.2476C13.5587 10.4999 14.2951 9.45742 14.6666 8.26793C15.0382 7.07844 15.0261 5.80218 14.632 4.61996C14.2379 3.43773 13.4819 2.40946 12.4709 1.68081C11.46 0.952155 10.2454 0.560059 8.99921 0.560059C7.75303 0.560059 6.53844 0.952155 5.52749 1.68081C4.51654 2.40946 3.76048 3.43773 3.3664 4.61996C2.97233 5.80218 2.96022 7.07844 3.33179 8.26793C3.70336 9.45742 4.43977 10.4999 5.43671 11.2476C3.43196 12.0614 1.7594 13.5262 0.688273 15.4062C0.621902 15.5129 0.577666 15.6319 0.558195 15.756C0.538724 15.8802 0.544415 16.007 0.57493 16.1289C0.605445 16.2508 0.660162 16.3653 0.735826 16.4657C0.81149 16.566 0.906558 16.6501 1.01538 16.713C1.1242 16.7759 1.24455 16.8162 1.36927 16.8317C1.494 16.8471 1.62055 16.8373 1.74141 16.8028C1.86227 16.7684 1.97497 16.71 2.07281 16.6311C2.17065 16.5522 2.25162 16.4545 2.31093 16.3437C3.72655 13.8968 6.22655 12.4374 8.99921 12.4374C11.7719 12.4374 14.2719 13.8976 15.6875 16.3437C15.816 16.5503 16.0199 16.6989 16.256 16.758C16.492 16.8171 16.7419 16.7821 16.9526 16.6603C17.1633 16.5386 17.3184 16.3396 17.3852 16.1056C17.4519 15.8715 17.425 15.6207 17.3101 15.4062ZM4.93671 6.4999C4.93671 5.69642 5.17497 4.91097 5.62137 4.2429C6.06776 3.57482 6.70223 3.05412 7.44456 2.74664C8.18688 2.43916 9.00372 2.35871 9.79177 2.51546C10.5798 2.67221 11.3037 3.05913 11.8718 3.62728C12.44 4.19543 12.8269 4.9193 12.9837 5.70735C13.1404 6.4954 13.06 7.31223 12.7525 8.05455C12.445 8.79688 11.9243 9.43135 11.2562 9.87775C10.5881 10.3241 9.8027 10.5624 8.99921 10.5624C7.92215 10.5612 6.88956 10.1328 6.12796 9.37115C5.36636 8.60956 4.93795 7.57696 4.93671 6.4999Z" fill="#E86100"/>
</svg>
