<!-- <svg xmlns="http://www.w3.org/2000/svg" fill="none" class="icon icon-cart" viewBox="0 0 40 40"><path fill="currentColor" fill-rule="evenodd" d="M20.5 6.5a4.75 4.75 0 0 0-4.75 4.75v.56h-3.16l-.77 11.6a5 5 0 0 0 4.99 5.34h7.38a5 5 0 0 0 4.99-5.33l-.77-11.6h-3.16v-.57A4.75 4.75 0 0 0 20.5 6.5m3.75 5.31v-.56a3.75 3.75 0 1 0-7.5 0v.56zm-7.5 1h7.5v.56a3.75 3.75 0 1 1-7.5 0zm-1 0v.56a4.75 4.75 0 1 0 9.5 0v-.56h2.22l.71 10.67a4 4 0 0 1-3.99 4.27h-7.38a4 4 0 0 1-4-4.27l.72-10.67z"/></svg> -->
<svg width="20" height="18" viewBox="0 0 20 18" fill="none" xmlns="http://www.w3.org/2000/svg">
<path d="M10.9377 9.99976V13.1248C10.9377 13.3734 10.8389 13.6119 10.6631 13.7877C10.4873 13.9635 10.2488 14.0623 10.0002 14.0623C9.75156 14.0623 9.51311 13.9635 9.33729 13.7877C9.16147 13.6119 9.0627 13.3734 9.0627 13.1248V9.99976C9.0627 9.75112 9.16147 9.51266 9.33729 9.33684C9.51311 9.16103 9.75156 9.06226 10.0002 9.06226C10.2488 9.06226 10.4873 9.16103 10.6631 9.33684C10.8389 9.51266 10.9377 9.75112 10.9377 9.99976ZM13.1299 9.90679L12.8174 13.0318C12.7928 13.2792 12.8674 13.5262 13.0249 13.7186C13.1824 13.911 13.4098 14.0329 13.6572 14.0576C13.6885 14.0576 13.7205 14.0623 13.751 14.0623C13.9834 14.062 14.2074 13.9755 14.3796 13.8195C14.5519 13.6634 14.66 13.449 14.683 13.2177L14.9955 10.0927C15.0171 9.84696 14.9409 9.6026 14.7834 9.41264C14.626 9.22267 14.4001 9.10242 14.1546 9.07795C13.9091 9.05349 13.6638 9.12678 13.472 9.28193C13.2802 9.43709 13.1573 9.6616 13.1299 9.90679ZM6.87052 9.90679C6.84313 9.6616 6.72021 9.43709 6.52839 9.28193C6.33657 9.12678 6.09133 9.05349 5.84583 9.07795C5.60034 9.10242 5.37438 9.22267 5.21696 9.41264C5.05954 9.6026 4.98334 9.84696 5.00489 10.0927L5.31739 13.2177C5.34045 13.4491 5.44868 13.6637 5.62106 13.8197C5.79344 13.9758 6.01767 14.0622 6.2502 14.0623C6.28067 14.0623 6.3127 14.0623 6.34395 14.0576C6.59134 14.0329 6.8188 13.911 6.9763 13.7186C7.1338 13.5262 7.20844 13.2792 7.1838 13.0318L6.87052 9.90679ZM19.058 6.99898L17.8807 15.8271C17.8305 16.2034 17.6455 16.5486 17.36 16.7988C17.0745 17.049 16.7079 17.187 16.3283 17.1873H3.67208C3.29375 17.1862 2.92858 17.0483 2.64398 16.799C2.35938 16.5497 2.17456 16.2059 2.12364 15.831L0.946297 7.00288C0.927989 6.87018 0.938332 6.7351 0.976628 6.60674C1.01492 6.47837 1.08028 6.35971 1.16831 6.25873C1.25633 6.15775 1.36497 6.07681 1.4869 6.02136C1.60884 5.96591 1.74125 5.93723 1.8752 5.93726H5.19942L9.29708 1.25757C9.38507 1.15703 9.49354 1.07646 9.61521 1.02126C9.73688 0.966058 9.86894 0.9375 10.0025 0.9375C10.1362 0.9375 10.2682 0.966058 10.3899 1.02126C10.5116 1.07646 10.62 1.15703 10.708 1.25757L14.801 5.93726H18.1252C18.2588 5.9373 18.3908 5.9659 18.5124 6.02112C18.6341 6.07634 18.7425 6.15691 18.8304 6.25745C18.9184 6.35798 18.9839 6.47615 19.0224 6.60403C19.061 6.73192 19.0718 6.86657 19.0541 6.99898H19.058ZM7.69161 5.93726H12.3088L10.0002 3.29819L7.69161 5.93726ZM17.0541 7.81226H2.9463L3.9463 15.3123H16.0557L17.0541 7.81226Z" fill="#E86100"/>
</svg>
