<!-- <svg fill="none" class="icon icon-search" viewBox="0 0 18 19"><path fill="currentColor" fill-rule="evenodd" d="M11.03 11.68A5.784 5.784 0 1 1 2.85 3.5a5.784 5.784 0 0 1 8.18 8.18m.26 1.12a6.78 6.78 0 1 1 .72-.7l5.4 5.4a.5.5 0 1 1-.71.7z" clip-rule="evenodd"/></svg> -->
<svg width="10" height="10" viewBox="0 0 20 20" fill="none" xmlns="http://www.w3.org/2000/svg">
<path d="M7.69299 0.144531C6.70175 0.14443 5.7202 0.339583 4.80438 0.718844C3.88856 1.09811 3.05642 1.65405 2.35547 2.35493C1.65452 3.0558 1.09849 3.88789 0.719139 4.80367C0.339784 5.71945 0.144531 6.70098 0.144531 7.69222C0.14443 8.68353 0.339608 9.66515 0.718918 10.581C1.09823 11.4969 1.65424 12.3291 2.3552 13.03C3.05616 13.731 3.88833 14.287 4.8042 14.6663C5.72007 15.0456 6.70169 15.2408 7.69299 15.2407C9.45453 15.2407 11.0722 14.6168 12.3568 13.6061L13.0299 14.2791C12.8917 14.5477 12.8428 14.8533 12.8902 15.1516C12.9377 15.4499 13.079 15.7252 13.2938 15.9376L16.8276 19.4953C17.3761 20.0445 18.2738 20.0445 18.823 19.4953L19.4961 18.8222C19.7596 18.557 19.9075 18.1984 19.9075 17.8245C19.9075 17.4507 19.7596 17.092 19.4961 16.8268L15.9384 13.293C15.7245 13.0797 15.4475 12.9412 15.1485 12.8979C14.8496 12.8547 14.5447 12.9091 14.2791 13.053L13.6061 12.3799C14.4871 11.2681 15.037 9.93054 15.1927 8.52055C15.3483 7.11056 15.1035 5.68524 14.4863 4.40802C13.869 3.13079 12.9043 2.05337 11.7028 1.29928C10.5013 0.545201 9.11155 0.144988 7.69299 0.144531ZM7.69299 1.53838C9.32509 1.53838 10.8903 2.18673 12.0444 3.3408C13.1985 4.49487 13.8468 6.06012 13.8468 7.69222C13.8468 9.32432 13.1985 10.8896 12.0444 12.0436C10.8903 13.1977 9.32509 13.8461 7.69299 13.8461C6.06089 13.8461 4.49564 13.1977 3.34157 12.0436C2.1875 10.8896 1.53915 9.32432 1.53915 7.69222C1.53915 6.06012 2.1875 4.49487 3.34157 3.3408C4.49564 2.18673 6.06089 1.53838 7.69299 1.53838ZM3.79838 5.7453C3.3881 6.40984 3.17175 7.17585 3.17376 7.95684C3.17285 8.50956 3.28104 9.05702 3.49214 9.56784C3.70323 10.0787 4.01308 10.5428 4.40391 10.9336C4.79474 11.3244 5.25887 11.6343 5.76969 11.8454C6.28051 12.0565 6.82797 12.1647 7.38068 12.1638C8.24959 12.162 9.097 11.8935 9.80838 11.3945C9.6166 11.4123 9.42403 11.42 9.23145 11.4176C8.51752 11.4194 7.81027 11.2802 7.15032 11.0078C6.49038 10.7355 5.89075 10.3354 5.38589 9.83064C4.88103 9.32585 4.48088 8.72628 4.20845 8.06637C3.93601 7.40647 3.79665 6.69923 3.79838 5.9853C3.79838 5.9053 3.79453 5.8253 3.79838 5.7453Z" fill="#E86100"/>
</svg>